<?xml version="1.0" encoding="UTF-8" standalone="no"?>
<svg
   xmlns:dc="http://purl.org/dc/elements/1.1/"
   xmlns:cc="http://creativecommons.org/ns#"
   xmlns:rdf="http://www.w3.org/1999/02/22-rdf-syntax-ns#"
   xmlns:svg="http://www.w3.org/2000/svg"
   xmlns="http://www.w3.org/2000/svg"
   viewBox="0 0 360 675"
   height="675"
   width="360"
   version="1.1"
   id="svg3368">
  <metadata
     id="metadata3374">
    <rdf:RDF>
      <cc:Work
         rdf:about="">
        <dc:format>image/svg+xml</dc:format>
      https://www.w3.org/WAI/WCAG21/quickref/#headings-and-labels  <dc:type
           rdf:resource="http://purl.org/dc/dcmitype/StillImage" />
        <dc:title></dc:title>
      </cc:Work>
    </rdf:RDF>
  </metadata>
  <defs
     id="defs3372" />
  <path
     id="path3378"
     d="m 172.7255,594.05941 -0.0755,-80.9406 -86.1731,80.7906 C 39.08169,638.34424 0.23544,674.70001 0.1519,674.70001 0.0684,674.70001 0,522.96001 0,337.50001 0,152.04001 0.0684,0.3 0.1519,0.3 c 0.0835,0 38.92979,36.355773 86.325,80.790616 L 172.65,161.88122 172.7255,80.940616 172.801,0 l 6.29892,0 6.29892,0 0.0755,81.783346 0.0755,81.783334 87.07365,-81.633334 C 320.51418,37.035 359.76543,0.3 359.84865,0.3 359.93195,0.3 360,152.04001 360,337.50001 c 0,185.46 -0.0681,337.2 -0.15135,337.2 -0.0832,0 -39.33447,-36.735 -87.225,-81.63333 L 185.55,511.43335 l -0.0755,81.78333 -0.0755,81.78333 -6.29892,0 -6.29892,0 -0.0755,-80.9406 z M 92.2158,571.4215 c 43.0838,-40.38567 78.37034,-73.5354 78.41453,-73.66611 0.0865,-0.2556 -77.11151,-72.73044 -77.6698,-72.91776 -0.18421,-0.0618 -18.34071,17.89299 -40.34776,39.89955 l -40.01281,40.01199 0,70.62192 0,70.62192 0.64084,-0.5715 C 13.59325,645.10717 49.132,611.8072 92.2158,571.4215 Z M 307.42559,464.77093 c -21.98661,-21.98964 -40.14495,-39.94509 -40.35192,-39.90105 -0.52845,0.11253 -77.80239,72.59481 -77.70408,72.88578 0.0442,0.13086 35.58537,33.52281 78.98037,74.20437 l 78.9,73.96647 0.0756,-70.58721 0.0756,-70.58718 -39.97563,-39.98118 z M 83.62508,416.02828 c -0.0767,-0.22704 -70.27482,-66.09996 -70.75895,-66.39918 -0.1546,-0.0956 -0.26617,28.73421 -0.26617,68.77773 l 0,68.94222 35.55012,-35.54916 c 19.55256,-19.55205 35.51631,-35.64927 35.475,-35.77161 z m 263.70114,-32.03721 -0.0763,-34.55706 -34.65,32.46285 c -19.0575,17.85459 -35.05359,32.85561 -35.54688,33.33564 l -0.89688,0.87279 35.54688,35.54787 35.54688,35.54784 0.0763,-34.32645 c 0.0419,-18.87954 0.0419,-49.87713 0,-68.88348 z m -126.22626,66.61371 c 18.5625,-17.37201 34.52568,-32.34435 35.47374,-33.27186 l 1.72371,-1.68636 -36.44871,-36.44781 -36.44874,-36.44781 0,70.63338 0,70.63338 0.975,-0.91371 c 0.53625,-0.50253 16.1625,-15.12717 34.725,-32.49921 z m -48.3,-37.27929 0,-68.77452 -35.54682,35.54586 -35.54684,35.54589 0.70094,0.70092 c 2.40277,2.40279 69.98526,65.7138 70.16772,65.73288 0.12375,0.0129 0.225,-30.92505 0.225,-68.75103 z m -45.15,-41.02548 34.79904,-34.8 -34.79904,-34.8 c -19.13947,-19.14 -34.87808,-34.8 -34.9747,-34.8 -0.23684,0 -74.2253,69.37791 -74.2253,69.6 0,0.22209 73.98846,69.6 74.2253,69.6 0.0966,0 15.83523,-15.66 34.9747,-34.8 z m 176.8752,0.0875 c 20.36364,-19.0919 37.0248,-34.79129 37.0248,-34.8875 0,-0.22209 -73.98846,-69.6 -74.22531,-69.6 -0.0966,0 -15.83523,15.66 -34.97469,34.8 l -34.79904,34.8 34.79904,34.8 c 19.13946,19.14 34.87809,34.8 34.97469,34.8 0.0966,0 16.83684,-15.62064 37.20051,-34.71252 z M 256.5737,257.6671 c -0.94806,-0.92751 -16.91124,-15.89985 -35.47374,-33.27187 -18.5625,-17.37202 -34.18875,-31.99666 -34.725,-32.49921 l -0.975,-0.91371 0,70.63339 0,70.63338 36.44874,-36.44781 36.44871,-36.4478 -1.72371,-1.68637 z m -83.89881,-64.69216 c -0.0695,-0.0695 -16.07565,14.82788 -35.56926,33.10528 l -35.44287,33.23164 35.4936,35.49455 35.4936,35.49456 0.0757,-68.59984 c 0.0416,-37.7299 0.0189,-68.65669 -0.0507,-68.72619 z M 48.34113,292.20028 c 19.36486,-18.15336 35.24263,-33.10622 35.28395,-33.22855 0.0413,-0.12234 -15.92244,-16.21956 -35.475,-35.7716 l -35.55012,-35.54917 0,68.94223 c 0,40.04352 0.11157,68.87328 0.26617,68.77773 0.14639,-0.0905 16.11014,-15.01725 35.475,-33.17064 z m 299.05883,-35.6248 0,-68.92452 -35.55012,35.54917 c -19.55256,19.55204 -35.51631,35.64938 -35.475,35.77187 0.0821,0.24331 70.73895,66.52801 70.91622,66.52801 0.0599,0 0.1089,-31.01604 0.1089,-68.92453 z M 132.00662,213.76613 c 21.28725,-19.95614 38.66793,-36.39094 38.62371,-36.52178 -0.0442,-0.13084 -35.58537,-33.52281 -78.98037,-74.20436 l -78.9,-73.966477 -0.0756,70.587203 -0.0756,70.587194 39.97563,39.98117 c 21.9866,21.98964 40.14496,39.94511 40.35191,39.90105 0.20696,-0.0441 17.79313,-16.40787 39.08038,-36.364 z m 175.41939,-3.54217 39.97521,-39.97605 -0.0756,-70.587194 -0.0756,-70.587203 -78.9,73.967087 c -43.395,40.68188 -78.9,74.10741 -78.9,74.27895 0,0.38666 77.28489,72.87515 77.70042,72.87823 0.16524,0.001 18.28926,-17.98699 40.27563,-39.97382 z"
     style="fill:#000000" />
</svg>
